HIERARCHY
ROOT Hips
{
 OFFSET 0.000000 0.000000 0.000000
 CHANNELS 6 Xposition Yposition Zposition Yrotation Xrotation Zrotation
 JOINT Chest
 {
  OFFSET 0.000000 9.585900 0.002600
  CHANNELS 3 Yrotation Xrotation Zrotation
  JOINT Chest2
  {
   OFFSET 0.000000 9.601200 -0.005300
   CHANNELS 3 Yrotation Xrotation Zrotation
   JOINT Chest3
   {
    OFFSET 0.000000 9.561800 0.000000
    CHANNELS 3 Yrotation Xrotation Zrotation
    JOINT Chest4
    {
     OFFSET 0.000000 9.552100 0.000000
     CHANNELS 3 Yrotation Xrotation Zrotation
     JOINT Neck
     {
      OFFSET 0.000000 14.453000 0.000000
      CHANNELS 3 Yrotation Xrotation Zrotation
      JOINT Head
      {
       OFFSET 0.000000 8.936500 -0.011300
       CHANNELS 3 Yrotation Xrotation Zrotation
       End Site
       {
        OFFSET 0.000000 17.073600 -0.006000
       }
      }
     }
     JOINT RightCollar
     {
      OFFSET -2.921100 9.558500 0.000000
      CHANNELS 3 Yrotation Xrotation Zrotation
      JOINT RightShoulder
      {
       OFFSET -13.519700 0.000000 0.000000
       CHANNELS 3 Yrotation Xrotation Zrotation
       JOINT RightElbow
       {
        OFFSET 0.000000 -29.696600 0.000000
        CHANNELS 3 Yrotation Xrotation Zrotation
        JOINT RightWrist
        {
         OFFSET 0.000000 -24.004700 0.000000
         CHANNELS 3 Yrotation Xrotation Zrotation
         End Site
         {
          OFFSET 0.000000 -17.728500 0.000000
         }
        }
       }
      }
     }
     JOINT LeftCollar
     {
      OFFSET 2.921100 9.558500 0.000000
      CHANNELS 3 Yrotation Xrotation Zrotation
      JOINT LeftShoulder
      {
       OFFSET 13.519700 0.000000 0.000000
       CHANNELS 3 Yrotation Xrotation Zrotation
       JOINT LeftElbow
       {
        OFFSET 0.000000 -29.696600 0.000000
        CHANNELS 3 Yrotation Xrotation Zrotation
        JOINT LeftWrist
        {
         OFFSET 0.000000 -24.004700 0.000000
         CHANNELS 3 Yrotation Xrotation Zrotation
         End Site
         {
          OFFSET 0.000000 -17.728500 0.000000
         }
        }
       }
      }
     }
    }
   }
  }
 }
 JOINT RightHip
 {
  OFFSET -7.771700 -0.012900 -0.001300
  CHANNELS 3 Yrotation Xrotation Zrotation
  JOINT RightKnee
  {
   OFFSET 0.000000 -40.869800 0.001200
   CHANNELS 3 Yrotation Xrotation Zrotation
   JOINT RightAnkle
   {
    OFFSET 0.000000 -39.717900 0.002100
    CHANNELS 3 Yrotation Xrotation Zrotation
    JOINT RightToe
    {
     OFFSET 0.000000 -4.965400 11.033500
     CHANNELS 3 Yrotation Xrotation Zrotation
     End Site
     {
      OFFSET 0.000000 -1.423100 5.872300
     }
    }
   }
  }
 }
 JOINT LeftHip
 {
  OFFSET 7.771700 -0.012900 -0.001300
  CHANNELS 3 Yrotation Xrotation Zrotation
  JOINT LeftKnee
  {
   OFFSET 0.000000 -40.869800 0.001200
   CHANNELS 3 Yrotation Xrotation Zrotation
   JOINT LeftAnkle
   {
    OFFSET 0.000000 -39.717900 0.002100
    CHANNELS 3 Yrotation Xrotation Zrotation
    JOINT LeftToe
    {
     OFFSET 0.000000 -4.965400 11.033500
     CHANNELS 3 Yrotation Xrotation Zrotation
     End Site
     {
      OFFSET 0.000000 -1.423100 5.872300
     }
    }
   }
  }
 }
}
MOTION
Frames: 6
Frame Time: 0.008333
-132.979522 51.811710 -55.494363 175.550917 -24.751331 1.293025 0.077678 16.683078 -1.158380 0.019055 1.701754 -0.064541 0.030675 2.842154 -0.107492 0.099281 14.704827 -0.542505 2.462130 18.326739 -7.453443 4.427279 -6.005551 -8.731240 6.898945 13.662630 10.924677 34.786437 -3.770794 -33.239402 145.063590 -44.014262 -174.857879 4.589245 2.626192 -19.625026 -5.608069 14.908215 -15.786684 -23.819784 -0.898167 33.019750 -145.095705 -55.917508 -174.137016 16.914905 8.235954 8.162219 -11.238161 -57.846985 5.135203 -81.011733 81.638951 -89.605160 -4.504553 -8.833040 6.565606 0.214279 -0.656499 0.087235 8.514582 -55.673055 -6.658965 34.871354 84.919201 40.283513 -3.130508 -12.890287 -0.506614 0.160048 0.402528 0.070769
-132.980222 51.812019 -55.494082 175.548842 -24.754894 1.295119 0.069387 16.667917 -1.146333 0.018287 1.698534 -0.063698 0.033202 2.850163 -0.115520 0.100146 14.708504 -0.544995 2.458863 18.312194 -7.439378 4.421212 -6.012497 -8.719187 6.914389 13.651850 10.916101 34.758566 -3.784760 -33.230640 145.053107 -44.029590 -174.833228 4.572408 2.624409 -19.605454 -5.610722 14.871034 -15.765255 -23.811847 -0.887302 33.026079 -145.134982 -55.949765 -174.101423 16.915318 8.238353 8.152173 -11.228706 -57.843346 5.131311 -81.003065 81.632737 -89.597535 -4.502554 -8.831670 6.568199 0.209334 -0.661656 0.089531 8.506074 -55.670386 -6.651943 34.879813 84.918887 40.288557 -3.132266 -12.883593 -0.510244 0.163045 0.399135 0.071834
-132.982298 51.812144 -55.493423 175.543884 -24.753787 1.307030 0.069742 16.657055 -1.150066 0.018036 1.702842 -0.066435 0.030188 2.842858 -0.109744 0.094803 14.682064 -0.535030 2.455331 18.327771 -7.439534 4.413972 -6.017581 -8.705429 6.934235 13.664239 10.899169 34.737565 -3.772267 -33.215421 145.027194 -44.033713 -174.812258 4.595695 2.620654 -19.512689 -5.613826 14.885388 -15.775220 -23.805493 -0.881823 33.029404 -145.155527 -55.952410 -174.097332 16.920467 8.248242 8.171291 -11.204809 -57.844579 5.113966 -80.970364 81.628019 -89.570098 -4.499727 -8.831775 6.574303 0.208414 -0.662601 0.090584 8.514991 -55.669958 -6.660197 34.862607 84.915806 40.261576 -3.126609 -12.872860 -0.506573 0.158478 0.393933 0.070934
-132.982886 51.811998 -55.492160 175.547232 -24.748056 1.306569 0.066613 16.646154 -1.148189 0.017281 1.702266 -0.065931 0.028774 2.834236 -0.105670 0.095467 14.673760 -0.533024 2.449340 18.326798 -7.427357 4.413543 -6.007024 -8.708279 6.937495 13.677533 10.892255 34.735242 -3.772817 -33.212640 144.984839 -44.040933 -174.780356 4.592767 2.623651 -19.459669 -5.621583 14.879321 -15.767914 -23.797590 -0.869994 33.027851 -145.178709 -55.947269 -174.094459 16.921721 8.260507 8.167227 -11.204549 -57.849309 5.114044 -80.932459 81.618068 -89.536075 -4.482049 -8.819693 6.576100 0.204933 -0.673366 0.092508 8.499880 -55.676421 -6.649511 34.816061 84.914047 40.204708 -3.121104 -12.866706 -0.503722 0.160681 0.395087 0.070009
-132.984167 51.812046 -55.491429 175.553096 -24.744103 1.309495 0.060413 16.636620 -1.151156 0.017534 1.694966 -0.062945 0.028300 2.831288 -0.105114 0.097759 14.664607 -0.528287 2.440514 18.328076 -7.414627 4.411395 -5.995335 -8.711016 6.938284 13.682949 10.886324 34.725434 -3.778879 -33.207492 144.939946 -44.057716 -174.737784 4.582503 2.631421 -19.399632 -5.631704 14.881167 -15.767110 -23.791003 -0.858073 33.019962 -145.194123 -55.938669 -174.096800 16.929730 8.273318 8.166823 -11.201306 -57.853666 5.105758 -80.910953 81.606449 -89.518285 -4.466395 -8.808600 6.577693 0.205285 -0.680467 0.093867 8.494601 -55.679194 -6.654045 34.779170 84.910583 40.164085 -3.115735 -12.858966 -0.502940 0.165943 0.395302 0.068788
-132.984895 51.812386 -55.491609 175.559768 -24.745008 1.309224 0.061400 16.615945 -1.137966 0.014828 1.704969 -0.069287 0.030714 2.813236 -0.098199 0.089624 14.667406 -0.530280 2.430994 18.330165 -7.402710 4.401552 -5.993564 -8.695087 6.935515 13.692220 10.880750 34.714613 -3.786199 -33.205209 144.923110 -44.075022 -174.712595 4.577176 2.640759 -19.331662 -5.639871 14.884480 -15.766703 -23.784163 -0.846533 33.010162 -145.212824 -55.930468 -174.099559 16.939293 8.285532 8.152047 -11.203757 -57.852040 5.102368 -80.899110 81.596413 -89.508888 -4.455727 -8.800197 6.575966 0.205237 -0.684487 0.096217 8.487901 -55.677725 -6.655005 34.758139 84.907477 40.139486 -3.105750 -12.852390 -0.501327 0.159978 0.395300 0.067193
